<?xml version="1.0" encoding="UTF-8"?>
<svg id="Layer_2" data-name="Layer 2" xmlns="http://www.w3.org/2000/svg" viewBox="0 0 597 163.56">
  <defs>
    <style>
      .cls-1 {
        fill: #1a833b;
      }

      .cls-2 {
        fill: #fff;
      }

      .cls-3 {
        fill: #1a589f;
      }
    </style>
  </defs>
  <polygon points="186.47 45.25 160.07 77.63 160.07 45.25 150.62 45.25 150.62 116.61 160.07 116.61 160.07 80.03 186.45 116.61 198.27 116.61 169.91 78.78 198.34 45.25 186.47 45.25"/>
  <path d="M241.57,99.45l.36-16.93c0-4.3,0-8.35-1.11-11.32-2.29-5.34-7.27-8.17-14.41-8.17-7.78,0-15.12,2.32-21.82,6.91l-.35.24,4.47,6.1.33-.3c3.27-2.91,10.45-6.02,15.93-6.02,3.16,0,4.85,1.06,6.55,2.76,1.32,1.32,1.68,2.96,1.68,7.63v3.19h-3.19c-17.16,0-27.4,7.01-27.4,18.76,0,3.56,1.22,15.16,16.96,15.16,5.69,0,9.69-1.76,14.53-6.45.94,3.47,3.49,6.11,6.95,7.15l.28.09,4.37-6.36-.37-.22c-3.48-2.09-4.11-4.15-3.76-12.24ZM233.2,103.29c-2.57,4.7-7.23,7.62-12.19,7.62-5.78,0-8.59-2.93-8.59-8.95,0-8.18,5.31-11.83,17.23-11.83.98,0,2.57,0,3.9.28l-.35,12.89Z"/>
  <path d="M318,70.54l2.04-6.93h-13.09c.03-5.93.72-12.49,1.07-14.27l.12-.61-9.21,2v.33c0,.69-.11,2.2-.24,3.96-.2,2.69-.45,6-.47,8.59h-6.84v6.93h6.84v34.87c0,5.4,1.62,8.62,5.26,10.44,2.05,1.03,4.22,1.48,7.02,1.48,3.63,0,6.56-.7,9.2-2.21l.26-.15-1.25-5.84-.47.23c-1.47.74-2.88,1.04-4.86,1.04-4.77,0-6.07-1.54-6.07-7.15v-32.71h10.69Z"/>
  <path d="M350.83,98.79c-.89,2.44-1.51,4.92-1.93,6.56-.15.59-.29,1.13-.4,1.52-.24-.74-.61-2.08-1-3.47-.4-1.44-.85-3.08-1.31-4.6l-11.99-35.62-9.09,1.98,18.61,51.82h8.48l19.9-51.73.21-.55h-9.52l-11.97,34.1Z"/>
  <path d="M397.69,62.52c-6.44,0-11.61,2.4-15.79,7.35-4.47,5.58-6.21,11.11-6.21,19.69,0,17.12,8.84,27.76,23.08,27.76,6.3,0,12.53-2.33,17.54-6.57l.27-.23-3.69-5.74-.36.32c-3.52,3.16-7.32,4.57-12.32,4.57-3.79,0-8.99-1.03-12.27-5.95-1.62-2.27-2.44-5.94-2.44-10.92v-1.39h32.39v-1.49c0-12.04-1.32-16.94-5.88-21.88-3.56-3.56-8.65-5.52-14.33-5.52ZM396.61,70.18c3.83,0,7.28,1.72,9.01,4.49v.02c1.77,2.46,2.41,5.62,2.12,10.51h-22.59c.44-9.69,4.5-15.02,11.45-15.02Z"/>
  <path d="M508.66,64.68h-11.18l-19.56,22.45h0s0-33.57,0-33.57c0-7.22-1.09-11.63-1.48-12.42l-.14-.27-8.75,1.59.24.49c.29.59,1.4,4.06,1.4,10.26v63.39h8.73v-28.94l23.39,28.79.12.15h11.88l-25.18-29.19,20.53-22.73Z"/>
  <path d="M536.89,62.52c-6.44,0-11.61,2.4-15.8,7.35-4.46,5.58-6.2,11.1-6.2,19.69,0,17.12,8.84,27.76,23.08,27.76,6.3,0,12.53-2.33,17.54-6.57l.27-.23-3.7-5.74-.36.32c-3.52,3.16-7.32,4.57-12.32,4.57-3.79,0-8.99-1.03-12.27-5.95-1.62-2.27-2.44-5.94-2.44-10.92v-1.39h32.39v-1.49c0-12.04-1.32-16.94-5.88-21.88-3.56-3.56-8.65-5.52-14.33-5.52ZM536.17,70.18c3.83,0,7.28,1.72,9.01,4.48,1.43,2.51,2.07,5.68,2.1,10.54h-22.56c.44-9.69,4.5-15.02,11.45-15.02Z"/>
  <path d="M589.19,109.36c-1.47.74-2.88,1.04-4.86,1.04-4.77,0-6.07-1.54-6.07-7.15v-32.71h10.69l2.04-6.93h-13.09c.03-5.92.72-12.49,1.07-14.27l.12-.61-9.21,2v.33c0,.69-.11,2.2-.24,3.96-.2,2.69-.45,6-.47,8.59h-6.84v6.93h6.84v34.87c0,5.4,1.62,8.62,5.26,10.44,2.05,1.03,4.22,1.48,7.02,1.48,3.63,0,6.56-.7,9.2-2.21l.26-.15-1.25-5.84-.47.23Z"/>
  <path d="M279.29,62.64c-5.72.23-11.36,3.31-14.99,8.11-.25-3.27-1.43-6.53-1.79-7.25l-.15-.3-8.72,2.38.22.44c.41.82,1.76,4.03,1.76,10.62v40h8.73v-32.44c0-4.18.33-5.56,2.74-7.97,2.44-2.09,6.07-3.57,9.25-3.77,1.61-.1,4.5.21,5.62.61l.37.13,3.93-9.82-.49-.09c-1.03-.19-4.42-.73-6.48-.64Z"/>
  <path d="M454.55,62.64c-5.72.23-11.36,3.31-14.99,8.11-.26-3.27-1.43-6.53-1.79-7.25l-.15-.3-8.72,2.38.22.44c.41.82,1.76,4.02,1.76,10.62v40h8.73v-32.44c0-4.18.33-5.56,2.74-7.97,2.44-2.09,6.07-3.57,9.25-3.77,1.61-.1,4.5.21,5.62.61l.37.13,3.93-9.82-.49-.09c-1.03-.19-4.42-.73-6.48-.64Z"/>
  <g>
    <path class="cls-1" d="M106.16,2.69H15.43c-4.55,0-8.25,3.69-8.25,8.25v55.63c7.12-5.42,16.03-12.99,32.11-9.02,13.85,3.42,16.87,14.1,38.79,26.23,13.41,7.43,26,1.7,36.33-4.3V10.94c0-4.55-3.69-8.25-8.25-8.25"/>
    <path class="cls-3" d="M85.17,108.59c-4.52-.55-8.04-2.11-11.49-4.35-7.68-4.74-15.04-12.49-30.69-20.61-12.47-6.06-24.64-1.44-35.78,4.91,0,0,0,0-.01,0v62.38c0,4.55,3.69,8.25,8.25,8.25h90.73c4.55,0,8.25-3.69,8.25-8.25v-50.85c-9.68,5.55-18.98,10.06-29.24,8.53"/>
    <path class="cls-2" d="M78.08,83.77c-21.91-12.13-24.93-22.81-38.79-26.23-16.08-3.97-24.99,3.61-32.11,9.02l.02,11.22v10.74c11.14-6.35,23.47-11.3,35.78-4.91,15.65,8.13,23.02,15.87,30.69,20.61,3.49,2.16,7.05,3.69,11.49,4.35,10.26,1.53,19.56-2.98,29.24-8.53l-.03-9.92.03-10.67c-10.33,6-22.91,11.73-36.33,4.3"/>
  </g>
</svg>