<?xml version="1.0" encoding="UTF-8"?>
<svg id="Layer_1" data-name="Layer 1" xmlns="http://www.w3.org/2000/svg" viewBox="0 0 32 32">
  <defs>
    <style>
      .cls-1 {
        fill: #1a833b;
      }

      .cls-2 {
        fill: #fff;
      }

      .cls-3 {
        fill: #1a589f;
      }
    </style>
  </defs>
  <path class="cls-1" d="M25.11.28H6.88c-.91,0-1.66.74-1.66,1.66v11.18c1.43-1.09,3.22-2.61,6.45-1.81,2.78.69,3.39,2.83,7.79,5.27,2.7,1.49,5.22.34,7.3-.86V1.94c0-.92-.74-1.66-1.66-1.66"/>
  <path class="cls-3" d="M20.9,21.56c-.91-.11-1.61-.42-2.31-.88-1.54-.95-3.02-2.51-6.17-4.14-2.51-1.22-4.95-.29-7.19.99,0,0,0,0,0,0v12.53c0,.92.74,1.66,1.66,1.66h18.23c.91,0,1.66-.74,1.66-1.66v-10.22c-1.95,1.12-3.81,2.02-5.88,1.71"/>
  <path class="cls-2" d="M19.47,16.57c-4.4-2.44-5.01-4.58-7.79-5.27-3.23-.8-5.02.73-6.45,1.81v2.26s0,2.16,0,2.16c2.24-1.28,4.72-2.27,7.19-.99,3.15,1.63,4.63,3.19,6.17,4.14.7.43,1.42.74,2.31.88,2.06.31,3.93-.6,5.88-1.71v-1.99s0-2.14,0-2.14c-2.08,1.21-4.6,2.36-7.3.86"/>
</svg>